<svg xmlns="http://www.w3.org/2000/svg" width="300" height="150" viewBox="0 0 300 150">
    <text x="150.00" y="145.00" aria-label="x-axis: 0 to 1" text-anchor="middle">x-axis: 0 to 1</text>
    <text x="5" y="75.00" transform="rotate(-90, 10, 75.00)" aria-label="y-axis: 0 to 1" text-anchor="middle">y-axis: 0 to 1</text>
    <text x="10" y="20">Plot for: y=sin(x) in range x=0:1,y=0:1</text>
    <polyline points="0.00,150.00 3.03,148.20 6.06,146.40 9.09,144.60 12.12,142.80 15.15,141.00 18.18,139.20 21.21,137.41 24.24,135.61 27.27,133.82 30.30,132.02 33.33,130.23 36.36,128.45 39.39,126.66 42.42,124.88 45.45,123.09 48.48,121.32 51.52,119.54 54.55,117.77 57.58,116.00 60.61,114.23 63.64,112.47 66.67,110.71 69.70,108.96 72.73,107.21 75.76,105.46 78.79,103.72 81.82,101.98 84.85,100.25 87.88,98.53 90.91,96.80 93.94,95.09 96.97,93.38 100.00,91.67 103.03,89.98 106.06,88.28 109.09,86.60 112.12,84.92 115.15,83.25 118.18,81.58 121.21,79.92 124.24,78.27 127.27,76.62 130.30,74.99 133.33,73.36 136.36,71.73 139.39,70.12 142.42,68.52 145.45,66.92 148.48,65.33 151.52,63.75 154.55,62.18 157.58,60.62 160.61,59.06 163.64,57.52 166.67,55.98 169.70,54.46 172.73,52.94 175.76,51.44 178.79,49.94 181.82,48.46 184.85,46.98 187.88,45.52 190.91,44.07 193.94,42.62 196.97,41.19 200.00,39.77 203.03,38.36 206.06,36.96 209.09,35.58 212.12,34.20 215.15,32.84 218.18,31.49 221.21,30.15 224.24,28.82 227.27,27.51 230.30,26.21 233.33,24.92 236.36,23.64 239.39,22.38 242.42,21.13 245.45,19.89 248.48,18.66 251.52,17.45 254.55,16.26 257.58,15.07 260.61,13.90 263.64,12.75 266.67,11.60 269.70,10.48 272.73,9.36 275.76,8.26 278.79,7.18 281.82,6.11 284.85,5.05 287.88,4.01 290.91,2.99 293.94,1.98 296.97,0.98 300.00,0.00" stroke="blue" fill="none" />
  </svg>