<svg xmlns="http://www.w3.org/2000/svg" width="300" height="150" viewBox="0 0 300 150" data-metadata="{&quot;expression&quot;:&quot;y=sin(x)&quot;,&quot;range&quot;:&quot;x=0:10,y=0:10&quot;,&quot;computedXRange&quot;:{&quot;min&quot;:0,&quot;max&quot;:10},&quot;computedYRange&quot;:{&quot;min&quot;:-0.9993845576124357,&quot;max&quot;:0.9996923408861117},&quot;axisLabels&quot;:{&quot;x&quot;:&quot;x-axis: 0 to 10&quot;,&quot;y&quot;:&quot;y-axis: 0 to 10&quot;},&quot;resolution&quot;:100,&quot;customParameters&quot;:{&quot;expression&quot;:&quot;y=sin(x)&quot;,&quot;range&quot;:&quot;x=0:10,y=0:10&quot;,&quot;file&quot;:&quot;output_gradient.svg&quot;,&quot;colorGradient&quot;:&quot;true&quot;,&quot;gradientStartColor&quot;:&quot;green&quot;,&quot;gradientEndColor&quot;:&quot;yellow&quot;,&quot;resolution&quot;:100,&quot;width&quot;:300,&quot;height&quot;:150}}"><linearGradient id="dynamicGradient"><stop offset="0%" stop-color="green" /><stop offset="100%" stop-color="yellow" /></linearGradient><text x="150.00" y="145.00" aria-label="x-axis: 0 to 10" text-anchor="middle">x-axis: 0 to 10</text><text x="5" y="75.00" transform="rotate(-90, 10, 75.00)" aria-label="y-axis: 0 to 10" text-anchor="middle">y-axis: 0 to 10</text><text x="10" y="20">Plot for: y=sin(x) in range x=0:10,y=0:10</text><polyline points="0.00,75.01 3.03,67.45 6.06,59.96 9.09,52.62 12.12,45.51 15.15,38.71 18.18,32.27 21.21,26.27 24.24,20.76 27.27,15.81 30.30,11.47 33.33,7.77 36.36,4.75 39.39,2.45 42.42,0.90 45.45,0.09 48.48,0.05 51.52,0.78 54.55,2.26 57.58,4.48 60.61,7.43 63.64,11.06 66.67,15.34 69.70,20.23 72.73,25.68 75.76,31.64 78.79,38.03 81.82,44.81 84.85,51.89 87.88,59.20 90.91,66.68 93.94,74.24 96.97,81.81 100.00,89.31 103.03,96.67 106.06,103.80 109.09,110.64 112.12,117.12 115.15,123.17 118.18,128.72 121.21,133.73 124.24,138.14 127.27,141.91 130.30,145.00 133.33,147.37 136.36,149.00 139.39,149.88 142.42,150.00 145.45,149.35 148.48,147.95 151.52,145.80 154.55,142.93 157.58,139.36 160.61,135.15 163.64,130.31 166.67,124.92 169.70,119.01 172.73,112.66 175.76,105.92 178.79,98.87 181.82,91.58 184.85,84.11 187.88,76.55 190.91,68.98 193.94,61.47 196.97,54.10 200.00,46.94 203.03,40.06 206.06,33.55 209.09,27.45 212.12,21.84 215.15,16.77 218.18,12.30 221.21,8.46 224.24,5.31 227.27,2.86 230.30,1.15 233.33,0.19 236.36,0.00 239.39,0.57 242.42,1.90 245.45,3.97 248.48,6.77 251.52,10.27 254.55,14.42 257.58,19.19 260.61,24.53 263.64,30.39 266.67,36.70 269.70,43.40 272.73,50.42 275.76,57.70 278.79,65.15 281.82,72.70 284.85,80.27 287.88,87.79 290.91,95.18 293.94,102.37 296.97,109.28 300.00,115.83" stroke="url(#dynamicGradient)" fill="none" /></svg>