<svg width="500" height="500" xmlns="http://www.w3.org/2000/svg">
  <rect width="100%" height="100%" fill="white"/>
  <polyline points="20,20 24.646464646464647,21.17238332367606 29.292929292929294,24.67758158732994 33.93939393939394,30.479861508945305 38.58585858585859,38.52007251010076 43.23232323232324,48.716249718750646 47.878787878787875,60.964449549317294 52.525252525252526,75.13980934188305 57.17171717171717,91.09782025813121 61.81818181818182,108.6758004576642 66.46464646464648,127.69455353659794 71.11111111111111,147.9601953216988 75.75757575757575,169.26613039705046 80.40404040404042,191.39515821380996 85.05050505050505,214.12168731259453 89.6969696969697,237.21403508590106 94.34343434343434,260.4367896359321 98.98989898989899,283.55320965018143 103.63636363636364,306.32763782956215 108.28282828282828,328.5279032657028 112.92929292929294,349.92768827669283 117.57575757575756,370.3088355728818 122.22222222222223,389.46357223263414 126.86868686868686,407.19662781601255 131.5151515151515,423.32722502355796 136.16161616161614,437.6909226066579 140.80808080808083,450.1412917421969 145.45454545454544,460.5514087819062 150.1010101010101,468.8151491587792 154.74747474747474,474.8482692599913 159.3939393939394,478.58926523731515 164.040404040404,480 168.68686868686868,479.0660919983208 173.33333333333334,475.79706183439225 177.97979797979798,470.2262352056446 182.62626262626262,462.4104031703906 187.27272727272728,452.42924319886185 191.91919191919192,440.3845069117329 196.56565656565655,426.39898278662673 201.21212121212122,410.615244407152 205.85858585858588,393.19419701528426 210.5050505050505,374.3134371840703 215.15151515151513,354.1654423327551 219.79797979797982,332.9556085410844 224.44444444444446,310.9001566660225 229.09090909090907,288.22392810670556 233.73737373737373,265.15809268841224 238.3838383838384,241.9377920322287 243.03030303030303,218.7997424347638 247.6767676767677,195.9798216950416 252.32323232323228,173.71066448934806 256.969696969697,152.2192908076641 261.61616161616166,131.72479162828034 266.26262626262627,112.43609542367545 270.9090909090909,94.5498382667227 275.55555555555554,78.24835925014389 280.2020202020202,63.6978416546462 284.8484848484849,51.04661881535503 289.4949494949495,40.423661957166814 294.14141414141415,31.93726541458352 298.7878787878788,25.67394263938428 303.4343434343434,21.697544250635758 308.080808080808,20.04860711796607 312.72727272727275,20.743941113786548 317.37373737373736,23.77645774726193 322.020202020202,29.11524242699602 326.6666666666667,36.7058696157622 331.3131313131313,46.47095766447376 335.95959595959596,58.310957669213735 340.6060606060606,72.10516830942362 345.25252525252523,87.71296632161756 349.8989898989899,104.97524006472048 354.54545454545456,123.71601156273573 359.19191919191917,143.74423048904237 363.83838383838383,164.8557218037862 368.4848484848485,186.83526718943057 373.1313131313131,209.45879906554836 377.77777777777777,232.49568481625644 382.42424242424244,255.71107794404188 387.07070707070704,278.86831218144755 391.71717171717177,301.731314154165 396.3636363636363,324.0670099999522 401.010101010101,345.64770140942596 405.6565656565657,366.25338686648456 410.30303030303025,385.6740044247856 414.949494949495,403.7115731565923 419.59595959595964,420.1822114432618 424.2424242424242,434.91801153218904 428.8888888888889,447.7687512502739 433.5353535353535,458.6034254240777 438.18181818181813,467.3115813948107 442.82828282828285,473.80444501341225 447.47474747474746,478.0158256369212 452.1212121212121,479.9027909002677 456.7676767676768,479.4461043846136 461.4141414141414,476.65042172049084 466.06060606060606,471.54424312658927 470.70707070707067,464.17962286803106 475.3535353535354,454.63163859602065 480,442.99762597861957" fill="none" stroke="black" stroke-width="2"/>
</svg>