<?xml version="1.0" encoding="UTF-8"?>
<svg xmlns="http://www.w3.org/2000/svg" viewBox="0 0 800 400" version="1.1">
  <polyline fill="none" stroke="black" stroke-width="1" points="10.00,200.30 11.24,202.20 12.48,204.10 13.73,206.00 14.97,207.90 16.21,209.80 17.45,211.70 18.69,213.59 19.94,215.49 21.18,217.38 22.42,219.27 23.66,221.16 24.90,223.05 26.15,224.93 27.39,226.81 28.63,228.69 29.87,230.57 31.11,232.44 32.36,234.31 33.60,236.18 34.84,238.04 36.08,239.90 37.32,241.76 38.57,243.61 39.81,245.46 41.05,247.30 42.29,249.14 43.54,250.97 44.78,252.80 46.02,254.62 47.26,256.44 48.50,258.25 49.75,260.05 50.99,261.85 52.23,263.65 53.47,265.43 54.71,267.22 55.96,268.99 57.20,270.76 58.44,272.52 59.68,274.27 60.92,276.01 62.17,277.75 63.41,279.48 64.65,281.20 65.89,282.92 67.13,284.62 68.38,286.32 69.62,288.01 70.86,289.69 72.10,291.36 73.34,293.02 74.59,294.67 75.83,296.31 77.07,297.95 78.31,299.57 79.55,301.18 80.80,302.78 82.04,304.38 83.28,305.96 84.52,307.53 85.76,309.09 87.01,310.64 88.25,312.18 89.49,313.71 90.73,315.23 91.97,316.73 93.22,318.22 94.46,319.71 95.70,321.18 96.94,322.63 98.18,324.08 99.43,325.51 100.67,326.93 101.91,328.34 103.15,329.73 104.39,331.11 105.64,332.48 106.88,333.84 108.12,335.18 109.36,336.51 110.61,337.82 111.85,339.12 113.09,340.41 114.33,341.68 115.57,342.94 116.82,344.19 118.06,345.42 119.30,346.63 120.54,347.83 121.78,349.02 123.03,350.19 124.27,351.35 125.51,352.49 126.75,353.61 127.99,354.72 129.24,355.82 130.48,356.90 131.72,357.96 132.96,359.01 134.20,360.04 135.45,361.06 136.69,362.06 137.93,363.04 139.17,364.01 140.41,364.96 141.66,365.90 142.90,366.81 144.14,367.71 145.38,368.60 146.62,369.47 147.87,370.32 149.11,371.15 150.35,371.97 151.59,372.77 152.83,373.55 154.08,374.31 155.32,375.06 156.56,375.79 157.80,376.50 159.04,377.20 160.29,377.87 161.53,378.53 162.77,379.17 164.01,379.80 165.25,380.40 166.50,380.99 167.74,381.56 168.98,382.11 170.22,382.64 171.46,383.16 172.71,383.65 173.95,384.13 175.19,384.59 176.43,385.03 177.68,385.45 178.92,385.86 180.16,386.24 181.40,386.61 182.64,386.96 183.89,387.29 185.13,387.60 186.37,387.89 187.61,388.16 188.85,388.42 190.10,388.65 191.34,388.87 192.58,389.07 193.82,389.24 195.06,389.40 196.31,389.55 197.55,389.67 198.79,389.77 200.03,389.85 201.27,389.92 202.52,389.97 203.76,389.99 205.00,390.00 206.24,389.99 207.48,389.96 208.73,389.91 209.97,389.84 211.21,389.75 212.45,389.65 213.69,389.52 214.94,389.38 216.18,389.22 217.42,389.04 218.66,388.84 219.90,388.62 221.15,388.38 222.39,388.12 223.63,387.84 224.87,387.55 226.11,387.24 227.36,386.90 228.60,386.55 229.84,386.18 231.08,385.79 232.32,385.39 233.57,384.96 234.81,384.52 236.05,384.06 237.29,383.58 238.54,383.08 239.78,382.56 241.02,382.02 242.26,381.47 243.50,380.90 244.75,380.31 245.99,379.70 247.23,379.07 248.47,378.43 249.71,377.77 250.96,377.09 252.20,376.39 253.44,375.68 254.68,374.94 255.92,374.19 257.17,373.43 258.41,372.64 259.65,371.84 260.89,371.02 262.13,370.18 263.38,369.33 264.62,368.46 265.86,367.57 267.10,366.67 268.34,365.75 269.59,364.81 270.83,363.86 272.07,362.89 273.31,361.90 274.55,360.90 275.80,359.88 277.04,358.84 278.28,357.79 279.52,356.73 280.76,355.65 282.01,354.55 283.25,353.44 284.49,352.31 285.73,351.16 286.97,350.01 288.22,348.83 289.46,347.64 290.70,346.44 291.94,345.22 293.18,343.99 294.43,342.74 295.67,341.48 296.91,340.21 298.15,338.92 299.39,337.61 300.64,336.30 301.88,334.97 303.12,333.62 304.36,332.27 305.61,330.90 306.85,329.51 308.09,328.11 309.33,326.71 310.57,325.28 311.82,323.85 313.06,322.40 314.30,320.94 315.54,319.47 316.78,317.99 318.03,316.49 319.27,314.99 320.51,313.47 321.75,311.94 322.99,310.40 324.24,308.84 325.48,307.28 326.72,305.71 327.96,304.12 329.20,302.53 330.45,300.93 331.69,299.31 332.93,297.69 334.17,296.05 335.41,294.41 336.66,292.75 337.90,291.09 339.14,289.42 340.38,287.74 341.62,286.05 342.87,284.35 344.11,282.64 345.35,280.93 346.59,279.21 347.83,277.47 349.08,275.74 350.32,273.99 351.56,272.24 352.80,270.47 354.04,268.71 355.29,266.93 356.53,265.15 357.77,263.36 359.01,261.57 360.25,259.77 361.50,257.96 362.74,256.15 363.98,254.33 365.22,252.51 366.46,250.68 367.71,248.85 368.95,247.01 370.19,245.16 371.43,243.32 372.68,241.46 373.92,239.61 375.16,237.75 376.40,235.88 377.64,234.02 378.89,232.14 380.13,230.27 381.37,228.39 382.61,226.51 383.85,224.63 385.10,222.75 386.34,220.86 387.58,218.97 388.82,217.08 390.06,215.18 391.31,213.29 392.55,211.39 393.79,209.50 395.03,207.60 396.27,205.70 397.52,203.80 398.76,201.90 400.00,200.00 401.24,198.10 402.48,196.20 403.73,194.30 404.97,192.40 406.21,190.50 407.45,188.61 408.69,186.71 409.94,184.82 411.18,182.92 412.42,181.03 413.66,179.14 414.90,177.25 416.15,175.37 417.39,173.49 418.63,171.61 419.87,169.73 421.11,167.86 422.36,165.98 423.60,164.12 424.84,162.25 426.08,160.39 427.32,158.54 428.57,156.68 429.81,154.84 431.05,152.99 432.29,151.15 433.54,149.32 434.78,147.49 436.02,145.67 437.26,143.85 438.50,142.04 439.75,140.23 440.99,138.43 442.23,136.64 443.47,134.85 444.71,133.07 445.96,131.29 447.20,129.53 448.44,127.76 449.68,126.01 450.92,124.26 452.17,122.53 453.41,120.79 454.65,119.07 455.89,117.36 457.13,115.65 458.38,113.95 459.62,112.26 460.86,110.58 462.10,108.91 463.34,107.25 464.59,105.59 465.83,103.95 467.07,102.31 468.31,100.69 469.55,99.07 470.80,97.47 472.04,95.88 473.28,94.29 474.52,92.72 475.76,91.16 477.01,89.60 478.25,88.06 479.49,86.53 480.73,85.01 481.97,83.51 483.22,82.01 484.46,80.53 485.70,79.06 486.94,77.60 488.18,76.15 489.43,74.72 490.67,73.29 491.91,71.89 493.15,70.49 494.39,69.10 495.64,67.73 496.88,66.38 498.12,65.03 499.36,63.70 500.61,62.39 501.85,61.08 503.09,59.79 504.33,58.52 505.57,57.26 506.82,56.01 508.06,54.78 509.30,53.56 510.54,52.36 511.78,51.17 513.03,49.99 514.27,48.84 515.51,47.69 516.75,46.56 517.99,45.45 519.24,44.35 520.48,43.27 521.72,42.21 522.96,41.16 524.20,40.12 525.45,39.10 526.69,38.10 527.93,37.11 529.17,36.14 530.41,35.19 531.66,34.25 532.90,33.33 534.14,32.43 535.38,31.54 536.62,30.67 537.87,29.82 539.11,28.98 540.35,28.16 541.59,27.36 542.83,26.57 544.08,25.81 545.32,25.06 546.56,24.32 547.80,23.61 549.04,22.91 550.29,22.23 551.53,21.57 552.77,20.93 554.01,20.30 555.25,19.69 556.50,19.10 557.74,18.53 558.98,17.98 560.22,17.44 561.46,16.92 562.71,16.42 563.95,15.94 565.19,15.48 566.43,15.04 567.68,14.61 568.92,14.21 570.16,13.82 571.40,13.45 572.64,13.10 573.89,12.76 575.13,12.45 576.37,12.16 577.61,11.88 578.85,11.62 580.10,11.38 581.34,11.16 582.58,10.96 583.82,10.78 585.06,10.62 586.31,10.48 587.55,10.35 588.79,10.25 590.03,10.16 591.27,10.09 592.52,10.04 593.76,10.01 595.00,10.00 596.24,10.01 597.48,10.03 598.73,10.08 599.97,10.15 601.21,10.23 602.45,10.33 603.69,10.45 604.94,10.60 606.18,10.76 607.42,10.93 608.66,11.13 609.90,11.35 611.15,11.58 612.39,11.84 613.63,12.11 614.87,12.40 616.11,12.71 617.36,13.04 618.60,13.39 619.84,13.76 621.08,14.14 622.32,14.55 623.57,14.97 624.81,15.41 626.05,15.87 627.29,16.35 628.54,16.84 629.78,17.36 631.02,17.89 632.26,18.44 633.50,19.01 634.75,19.60 635.99,20.20 637.23,20.83 638.47,21.47 639.71,22.13 640.96,22.80 642.20,23.50 643.44,24.21 644.68,24.94 645.92,25.69 647.17,26.45 648.41,27.23 649.65,28.03 650.89,28.85 652.13,29.68 653.38,30.53 654.62,31.40 655.86,32.29 657.10,33.19 658.34,34.10 659.59,35.04 660.83,35.99 662.07,36.96 663.31,37.94 664.55,38.94 665.80,39.96 667.04,40.99 668.28,42.04 669.52,43.10 670.76,44.18 672.01,45.28 673.25,46.39 674.49,47.51 675.73,48.65 676.97,49.81 678.22,50.98 679.46,52.17 680.70,53.37 681.94,54.58 683.18,55.81 684.43,57.06 685.67,58.32 686.91,59.59 688.15,60.88 689.39,62.18 690.64,63.49 691.88,64.82 693.12,66.16 694.36,67.52 695.61,68.89 696.85,70.27 698.09,71.66 699.33,73.07 700.57,74.49 701.82,75.92 703.06,77.37 704.30,78.82 705.54,80.29 706.78,81.78 708.03,83.27 709.27,84.77 710.51,86.29 711.75,87.82 712.99,89.36 714.24,90.91 715.48,92.47 716.72,94.04 717.96,95.62 719.20,97.22 720.45,98.82 721.69,100.43 722.93,102.05 724.17,103.69 725.41,105.33 726.66,106.98 727.90,108.64 729.14,110.31 730.38,111.99 731.62,113.68 732.87,115.38 734.11,117.08 735.35,118.80 736.59,120.52 737.83,122.25 739.08,123.99 740.32,125.73 741.56,127.48 742.80,129.24 744.04,131.01 745.29,132.78 746.53,134.57 747.77,136.35 749.01,138.15 750.25,139.95 751.50,141.75 752.74,143.56 753.98,145.38 755.22,147.20 756.46,149.03 757.71,150.86 758.95,152.70 760.19,154.54 761.43,156.39 762.68,158.24 763.92,160.10 765.16,161.96 766.40,163.82 767.64,165.69 768.89,167.56 770.13,169.43 771.37,171.31 772.61,173.19 773.85,175.07 775.10,176.95 776.34,178.84 777.58,180.73 778.82,182.62 780.06,184.51 781.31,186.41 782.55,188.30 783.79,190.20 785.03,192.10 786.27,194.00 787.52,195.90 788.76,197.80 790.00,199.70" />
</svg>