<svg width="500" height="400" xmlns="http://www.w3.org/2000/svg"><rect width="500" height="400" fill="#ffdead"/><text x="250" y="20" font-size="16" fill="#333" text-anchor="middle" style="font-family: Arial, sans-serif;">My Plot Title</text><line x1="10" y1="10" x2="10" y2="390" stroke="#ccc" stroke-width="1"/><line x1="58" y1="10" x2="58" y2="390" stroke="#ccc" stroke-width="1"/><line x1="106" y1="10" x2="106" y2="390" stroke="#ccc" stroke-width="1"/><line x1="154" y1="10" x2="154" y2="390" stroke="#ccc" stroke-width="1"/><line x1="202" y1="10" x2="202" y2="390" stroke="#ccc" stroke-width="1"/><line x1="250" y1="10" x2="250" y2="390" stroke="#ccc" stroke-width="1"/><line x1="298" y1="10" x2="298" y2="390" stroke="#ccc" stroke-width="1"/><line x1="346" y1="10" x2="346" y2="390" stroke="#ccc" stroke-width="1"/><line x1="394" y1="10" x2="394" y2="390" stroke="#ccc" stroke-width="1"/><line x1="442" y1="10" x2="442" y2="390" stroke="#ccc" stroke-width="1"/><line x1="490" y1="10" x2="490" y2="390" stroke="#ccc" stroke-width="1"/><line x1="10" y1="390" x2="490" y2="390" stroke="#ccc" stroke-width="1"/><line x1="10" y1="337.7486609750249" x2="490" y2="337.7486609750249" stroke="#ccc" stroke-width="1"/><line x1="10" y1="290.04692578315826" x2="490" y2="290.04692578315826" stroke="#ccc" stroke-width="1"/><line x1="10" y1="246.16558316358277" x2="490" y2="246.16558316358277" stroke="#ccc" stroke-width="1"/><line x1="10" y1="205.53780567530825" x2="490" y2="205.53780567530825" stroke="#ccc" stroke-width="1"/><line x1="10" y1="167.71424972596057" x2="490" y2="167.71424972596057" stroke="#ccc" stroke-width="1"/><line x1="10" y1="132.33267605719772" x2="490" y2="132.33267605719772" stroke="#ccc" stroke-width="1"/><line x1="10" y1="99.09679638206882" x2="490" y2="99.09679638206882" stroke="#ccc" stroke-width="1"/><line x1="10" y1="67.76117550911914" x2="490" y2="67.76117550911914" stroke="#ccc" stroke-width="1"/><line x1="10" y1="38.12022094863539" x2="490" y2="38.12022094863539" stroke="#ccc" stroke-width="1"/><line x1="10" y1="10" x2="490" y2="10" stroke="#ccc" stroke-width="1"/><text x="10" y="402" font-size="10" fill="#333" text-anchor="middle" style="font-family: Arial, sans-serif;">0.00 ms</text><text x="58" y="402" font-size="10" fill="#333" text-anchor="middle" style="font-family: Arial, sans-serif;">1.00 ms</text><text x="106" y="402" font-size="10" fill="#333" text-anchor="middle" style="font-family: Arial, sans-serif;">2.00 ms</text><text x="154" y="402" font-size="10" fill="#333" text-anchor="middle" style="font-family: Arial, sans-serif;">3.00 ms</text><text x="202" y="402" font-size="10" fill="#333" text-anchor="middle" style="font-family: Arial, sans-serif;">4.00 ms</text><text x="250" y="402" font-size="10" fill="#333" text-anchor="middle" style="font-family: Arial, sans-serif;">5.00 ms</text><text x="298" y="402" font-size="10" fill="#333" text-anchor="middle" style="font-family: Arial, sans-serif;">6.00 ms</text><text x="346" y="402" font-size="10" fill="#333" text-anchor="middle" style="font-family: Arial, sans-serif;">7.00 ms</text><text x="394" y="402" font-size="10" fill="#333" text-anchor="middle" style="font-family: Arial, sans-serif;">8.00 ms</text><text x="442" y="402" font-size="10" fill="#333" text-anchor="middle" style="font-family: Arial, sans-serif;">9.00 ms</text><text x="490" y="402" font-size="10" fill="#333" text-anchor="middle" style="font-family: Arial, sans-serif;">10.00 ms</text><text x="5" y="394" font-size="10" fill="#333" text-anchor="end" style="font-family: Arial, sans-serif;">10.00 units</text><text x="5" y="341.7486609750249" font-size="10" fill="#333" text-anchor="end" style="font-family: Arial, sans-serif;">11.00 units</text><text x="5" y="294.04692578315826" font-size="10" fill="#333" text-anchor="end" style="font-family: Arial, sans-serif;">12.00 units</text><text x="5" y="250.16558316358277" font-size="10" fill="#333" text-anchor="end" style="font-family: Arial, sans-serif;">13.00 units</text><text x="5" y="209.53780567530825" font-size="10" fill="#333" text-anchor="end" style="font-family: Arial, sans-serif;">14.00 units</text><text x="5" y="171.71424972596057" font-size="10" fill="#333" text-anchor="end" style="font-family: Arial, sans-serif;">15.00 units</text><text x="5" y="136.33267605719772" font-size="10" fill="#333" text-anchor="end" style="font-family: Arial, sans-serif;">16.00 units</text><text x="5" y="103.09679638206882" font-size="10" fill="#333" text-anchor="end" style="font-family: Arial, sans-serif;">17.00 units</text><text x="5" y="71.76117550911914" font-size="10" fill="#333" text-anchor="end" style="font-family: Arial, sans-serif;">18.00 units</text><text x="5" y="42.12022094863539" font-size="10" fill="#333" text-anchor="end" style="font-family: Arial, sans-serif;">19.00 units</text><text x="5" y="14" font-size="10" fill="#333" text-anchor="end" style="font-family: Arial, sans-serif;">20.00 units</text><polyline fill="none" stroke="green" stroke-width="5" stroke-dasharray="5,5" points="10,390 14.848484848484848,384.49016351585624 19.696969696969695,379.03515218456954 24.545454545454547,373.63388568108337 29.39393939393939,368.2853153006286 34.24242424242425,362.9884227366367 39.09090909090909,357.74221891712506 43.93939393939394,352.545742896236 48.78787878787878,347.3980607978157 53.63636363636364,342.2982648081337 58.48484848484849,337.2454722150197 63.333333333333336,332.23882449088086 68.18181818181819,327.2774864172115 73.03030303030303,322.36064524836195 77.87878787878788,317.48750991248033 82.72727272727273,312.65731024764995 87.57575757575756,307.8692962713892 92.42424242424242,303.1227374817744 97.27272727272728,298.41692218855786 102.12121212121211,293.7511568727521 106.96969696969698,289.12476557323305 111.81818181818181,284.5370892990145 116.66666666666667,279.98748546590576 121.51515151515152,275.47532735635497 126.36363636363637,271.0000036013406 131.2121212121212,266.560917683239 136.06060606060606,262.1574874586585 140.9090909090909,257.7891447002834 145.75757575757575,253.4553346568287 150.6060606060606,249.1555156302517 155.45454545454547,244.88915856941503 160.30303030303028,240.65574667943903 165.15151515151513,236.45477504602061 170.00000000000003,232.28575027403943 174.84848484848484,228.14819013979962 179.6969696969697,224.04162325629804 184.54545454545456,219.96558875093592 189.3939393939394,215.9196359551228 194.24242424242422,211.9033241052516 199.0909090909091,207.91622205454746 203.93939393939397,203.95790799531872 208.78787878787875,200.02796919116452 213.63636363636363,196.1260017187101 218.4848484848485,192.25161021847248 223.33333333333334,188.40440765446363 228.18181818181816,184.5840150821731 233.03030303030303,180.79006142457666 237.87878787878788,177.02218325584508 242.72727272727275,173.28002459243334 247.5757575757576,169.5632366912509 252.42424242424238,165.8714778546303 257.27272727272725,162.20441324181706 262.1212121212121,158.56171468672161 266.969696969697,154.94306052168938 271.8181818181818,151.3481354070442 276.6666666666667,147.7766301661891 281.5151515151515,144.22824162604124 286.3636363636364,140.7026724625973 291.2121212121212,137.19963105143336 296.06060606060606,133.71883132295255 300.90909090909093,130.2599926221966 305.75757575757575,126.82283957305395 310.60606060606057,123.4071019466972 315.45454545454544,120.01251453409424 320.30303030303025,116.63881702244242 325.1515151515151,113.28575387537978 330.00000000000006,109.95307421684174 334.8484848484848,106.64053171842039 339.6969696969697,103.34788449011182 344.54545454545456,100.07489497432277 349.3939393939394,96.82132984302149 354.24242424242425,93.58695989792506 359.0909090909091,90.37155997361049 363.93939393939394,87.17490884345449 368.7878787878788,83.99678912829626 373.6363636363636,80.83698720773492 378.48484848484844,77.6952931339668 383.3333333333333,74.57150054807886 388.1818181818182,71.46540659871272 393.030303030303,68.37681186302046 397.87878787878793,65.30552026983406 402.7272727272727,62.25133902497538 407.5757575757575,59.2140785386336 412.42424242424244,56.193552354747 417.27272727272725,53.18957708231551 422.1212121212122,50.201972328586635 426.969696969697,47.23056063405318 431.81818181818176,44.27516740919981 436.6666666666667,41.33562087294973 441.5151515151515,38.411751992749544 446.3636363636363,35.5033944262442 451.21212121212125,32.61038446449169 456.06060606060606,29.73256097666706 460.90909090909093,26.86976535621227 465.75757575757575,24.021841468381297 470.60606060606057,21.188635599143254 475.4545454545455,18.369996405399604 480.3030303030303,15.565774866472452 485.1515151515152,12.775824236828782 490,10" /><text x="250" y="395" font-size="12" fill="#333" text-anchor="middle" style="font-family: Arial, sans-serif;">Time (s)</text><text x="15" y="200" font-size="12" fill="#333" text-anchor="middle" transform="rotate(-90,15,200)" style="font-family: Arial, sans-serif;">Value</text><text x="10" y="15" font-size="10" fill="#333">Log Scale Applied</text><circle cx="10" cy="390" r="3" fill="black" style="cursor: pointer; fill: red; stroke: blue;"><title>X: 0.00, Y: 1.00</title></circle><circle cx="14.848484848484848" cy="384.49016351585624" r="3" fill="black" style="cursor: pointer; fill: red; stroke: blue;"><title>X: 0.10, Y: 1.00</title></circle><circle cx="19.696969696969695" cy="379.03515218456954" r="3" fill="black" style="cursor: pointer; fill: red; stroke: blue;"><title>X: 0.20, Y: 1.01</title></circle><circle cx="24.545454545454547" cy="373.63388568108337" r="3" fill="black" style="cursor: pointer; fill: red; stroke: blue;"><title>X: 0.30, Y: 1.01</title></circle><circle cx="29.39393939393939" cy="368.2853153006286" r="3" fill="black" style="cursor: pointer; fill: red; stroke: blue;"><title>X: 0.40, Y: 1.02</title></circle><circle cx="34.24242424242425" cy="362.9884227366367" r="3" fill="black" style="cursor: pointer; fill: red; stroke: blue;"><title>X: 0.51, Y: 1.02</title></circle><circle cx="39.09090909090909" cy="357.74221891712506" r="3" fill="black" style="cursor: pointer; fill: red; stroke: blue;"><title>X: 0.61, Y: 1.03</title></circle><circle cx="43.93939393939394" cy="352.545742896236" r="3" fill="black" style="cursor: pointer; fill: red; stroke: blue;"><title>X: 0.71, Y: 1.03</title></circle><circle cx="48.78787878787878" cy="347.3980607978157" r="3" fill="black" style="cursor: pointer; fill: red; stroke: blue;"><title>X: 0.81, Y: 1.03</title></circle><circle cx="53.63636363636364" cy="342.2982648081337" r="3" fill="black" style="cursor: pointer; fill: red; stroke: blue;"><title>X: 0.91, Y: 1.04</title></circle><circle cx="58.48484848484849" cy="337.2454722150197" r="3" fill="black" style="cursor: pointer; fill: red; stroke: blue;"><title>X: 1.01, Y: 1.04</title></circle><circle cx="63.333333333333336" cy="332.23882449088086" r="3" fill="black" style="cursor: pointer; fill: red; stroke: blue;"><title>X: 1.11, Y: 1.05</title></circle><circle cx="68.18181818181819" cy="327.2774864172115" r="3" fill="black" style="cursor: pointer; fill: red; stroke: blue;"><title>X: 1.21, Y: 1.05</title></circle><circle cx="73.03030303030303" cy="322.36064524836195" r="3" fill="black" style="cursor: pointer; fill: red; stroke: blue;"><title>X: 1.31, Y: 1.05</title></circle><circle cx="77.87878787878788" cy="317.48750991248033" r="3" fill="black" style="cursor: pointer; fill: red; stroke: blue;"><title>X: 1.41, Y: 1.06</title></circle><circle cx="82.72727272727273" cy="312.65731024764995" r="3" fill="black" style="cursor: pointer; fill: red; stroke: blue;"><title>X: 1.52, Y: 1.06</title></circle><circle cx="87.57575757575756" cy="307.8692962713892" r="3" fill="black" style="cursor: pointer; fill: red; stroke: blue;"><title>X: 1.62, Y: 1.07</title></circle><circle cx="92.42424242424242" cy="303.1227374817744" r="3" fill="black" style="cursor: pointer; fill: red; stroke: blue;"><title>X: 1.72, Y: 1.07</title></circle><circle cx="97.27272727272728" cy="298.41692218855786" r="3" fill="black" style="cursor: pointer; fill: red; stroke: blue;"><title>X: 1.82, Y: 1.07</title></circle><circle cx="102.12121212121211" cy="293.7511568727521" r="3" fill="black" style="cursor: pointer; fill: red; stroke: blue;"><title>X: 1.92, Y: 1.08</title></circle><circle cx="106.96969696969698" cy="289.12476557323305" r="3" fill="black" style="cursor: pointer; fill: red; stroke: blue;"><title>X: 2.02, Y: 1.08</title></circle><circle cx="111.81818181818181" cy="284.5370892990145" r="3" fill="black" style="cursor: pointer; fill: red; stroke: blue;"><title>X: 2.12, Y: 1.08</title></circle><circle cx="116.66666666666667" cy="279.98748546590576" r="3" fill="black" style="cursor: pointer; fill: red; stroke: blue;"><title>X: 2.22, Y: 1.09</title></circle><circle cx="121.51515151515152" cy="275.47532735635497" r="3" fill="black" style="cursor: pointer; fill: red; stroke: blue;"><title>X: 2.32, Y: 1.09</title></circle><circle cx="126.36363636363637" cy="271.0000036013406" r="3" fill="black" style="cursor: pointer; fill: red; stroke: blue;"><title>X: 2.42, Y: 1.09</title></circle><circle cx="131.2121212121212" cy="266.560917683239" r="3" fill="black" style="cursor: pointer; fill: red; stroke: blue;"><title>X: 2.53, Y: 1.10</title></circle><circle cx="136.06060606060606" cy="262.1574874586585" r="3" fill="black" style="cursor: pointer; fill: red; stroke: blue;"><title>X: 2.63, Y: 1.10</title></circle><circle cx="140.9090909090909" cy="257.7891447002834" r="3" fill="black" style="cursor: pointer; fill: red; stroke: blue;"><title>X: 2.73, Y: 1.10</title></circle><circle cx="145.75757575757575" cy="253.4553346568287" r="3" fill="black" style="cursor: pointer; fill: red; stroke: blue;"><title>X: 2.83, Y: 1.11</title></circle><circle cx="150.6060606060606" cy="249.1555156302517" r="3" fill="black" style="cursor: pointer; fill: red; stroke: blue;"><title>X: 2.93, Y: 1.11</title></circle><circle cx="155.45454545454547" cy="244.88915856941503" r="3" fill="black" style="cursor: pointer; fill: red; stroke: blue;"><title>X: 3.03, Y: 1.11</title></circle><circle cx="160.30303030303028" cy="240.65574667943903" r="3" fill="black" style="cursor: pointer; fill: red; stroke: blue;"><title>X: 3.13, Y: 1.12</title></circle><circle cx="165.15151515151513" cy="236.45477504602061" r="3" fill="black" style="cursor: pointer; fill: red; stroke: blue;"><title>X: 3.23, Y: 1.12</title></circle><circle cx="170.00000000000003" cy="232.28575027403943" r="3" fill="black" style="cursor: pointer; fill: red; stroke: blue;"><title>X: 3.33, Y: 1.12</title></circle><circle cx="174.84848484848484" cy="228.14819013979962" r="3" fill="black" style="cursor: pointer; fill: red; stroke: blue;"><title>X: 3.43, Y: 1.13</title></circle><circle cx="179.6969696969697" cy="224.04162325629804" r="3" fill="black" style="cursor: pointer; fill: red; stroke: blue;"><title>X: 3.54, Y: 1.13</title></circle><circle cx="184.54545454545456" cy="219.96558875093592" r="3" fill="black" style="cursor: pointer; fill: red; stroke: blue;"><title>X: 3.64, Y: 1.13</title></circle><circle cx="189.3939393939394" cy="215.9196359551228" r="3" fill="black" style="cursor: pointer; fill: red; stroke: blue;"><title>X: 3.74, Y: 1.14</title></circle><circle cx="194.24242424242422" cy="211.9033241052516" r="3" fill="black" style="cursor: pointer; fill: red; stroke: blue;"><title>X: 3.84, Y: 1.14</title></circle><circle cx="199.0909090909091" cy="207.91622205454746" r="3" fill="black" style="cursor: pointer; fill: red; stroke: blue;"><title>X: 3.94, Y: 1.14</title></circle><circle cx="203.93939393939397" cy="203.95790799531872" r="3" fill="black" style="cursor: pointer; fill: red; stroke: blue;"><title>X: 4.04, Y: 1.15</title></circle><circle cx="208.78787878787875" cy="200.02796919116452" r="3" fill="black" style="cursor: pointer; fill: red; stroke: blue;"><title>X: 4.14, Y: 1.15</title></circle><circle cx="213.63636363636363" cy="196.1260017187101" r="3" fill="black" style="cursor: pointer; fill: red; stroke: blue;"><title>X: 4.24, Y: 1.15</title></circle><circle cx="218.4848484848485" cy="192.25161021847248" r="3" fill="black" style="cursor: pointer; fill: red; stroke: blue;"><title>X: 4.34, Y: 1.16</title></circle><circle cx="223.33333333333334" cy="188.40440765446363" r="3" fill="black" style="cursor: pointer; fill: red; stroke: blue;"><title>X: 4.44, Y: 1.16</title></circle><circle cx="228.18181818181816" cy="184.5840150821731" r="3" fill="black" style="cursor: pointer; fill: red; stroke: blue;"><title>X: 4.55, Y: 1.16</title></circle><circle cx="233.03030303030303" cy="180.79006142457666" r="3" fill="black" style="cursor: pointer; fill: red; stroke: blue;"><title>X: 4.65, Y: 1.17</title></circle><circle cx="237.87878787878788" cy="177.02218325584508" r="3" fill="black" style="cursor: pointer; fill: red; stroke: blue;"><title>X: 4.75, Y: 1.17</title></circle><circle cx="242.72727272727275" cy="173.28002459243334" r="3" fill="black" style="cursor: pointer; fill: red; stroke: blue;"><title>X: 4.85, Y: 1.17</title></circle><circle cx="247.5757575757576" cy="169.5632366912509" r="3" fill="black" style="cursor: pointer; fill: red; stroke: blue;"><title>X: 4.95, Y: 1.17</title></circle><circle cx="252.42424242424238" cy="165.8714778546303" r="3" fill="black" style="cursor: pointer; fill: red; stroke: blue;"><title>X: 5.05, Y: 1.18</title></circle><circle cx="257.27272727272725" cy="162.20441324181706" r="3" fill="black" style="cursor: pointer; fill: red; stroke: blue;"><title>X: 5.15, Y: 1.18</title></circle><circle cx="262.1212121212121" cy="158.56171468672161" r="3" fill="black" style="cursor: pointer; fill: red; stroke: blue;"><title>X: 5.25, Y: 1.18</title></circle><circle cx="266.969696969697" cy="154.94306052168938" r="3" fill="black" style="cursor: pointer; fill: red; stroke: blue;"><title>X: 5.35, Y: 1.19</title></circle><circle cx="271.8181818181818" cy="151.3481354070442" r="3" fill="black" style="cursor: pointer; fill: red; stroke: blue;"><title>X: 5.45, Y: 1.19</title></circle><circle cx="276.6666666666667" cy="147.7766301661891" r="3" fill="black" style="cursor: pointer; fill: red; stroke: blue;"><title>X: 5.56, Y: 1.19</title></circle><circle cx="281.5151515151515" cy="144.22824162604124" r="3" fill="black" style="cursor: pointer; fill: red; stroke: blue;"><title>X: 5.66, Y: 1.19</title></circle><circle cx="286.3636363636364" cy="140.7026724625973" r="3" fill="black" style="cursor: pointer; fill: red; stroke: blue;"><title>X: 5.76, Y: 1.20</title></circle><circle cx="291.2121212121212" cy="137.19963105143336" r="3" fill="black" style="cursor: pointer; fill: red; stroke: blue;"><title>X: 5.86, Y: 1.20</title></circle><circle cx="296.06060606060606" cy="133.71883132295255" r="3" fill="black" style="cursor: pointer; fill: red; stroke: blue;"><title>X: 5.96, Y: 1.20</title></circle><circle cx="300.90909090909093" cy="130.2599926221966" r="3" fill="black" style="cursor: pointer; fill: red; stroke: blue;"><title>X: 6.06, Y: 1.21</title></circle><circle cx="305.75757575757575" cy="126.82283957305395" r="3" fill="black" style="cursor: pointer; fill: red; stroke: blue;"><title>X: 6.16, Y: 1.21</title></circle><circle cx="310.60606060606057" cy="123.4071019466972" r="3" fill="black" style="cursor: pointer; fill: red; stroke: blue;"><title>X: 6.26, Y: 1.21</title></circle><circle cx="315.45454545454544" cy="120.01251453409424" r="3" fill="black" style="cursor: pointer; fill: red; stroke: blue;"><title>X: 6.36, Y: 1.21</title></circle><circle cx="320.30303030303025" cy="116.63881702244242" r="3" fill="black" style="cursor: pointer; fill: red; stroke: blue;"><title>X: 6.46, Y: 1.22</title></circle><circle cx="325.1515151515151" cy="113.28575387537978" r="3" fill="black" style="cursor: pointer; fill: red; stroke: blue;"><title>X: 6.57, Y: 1.22</title></circle><circle cx="330.00000000000006" cy="109.95307421684174" r="3" fill="black" style="cursor: pointer; fill: red; stroke: blue;"><title>X: 6.67, Y: 1.22</title></circle><circle cx="334.8484848484848" cy="106.64053171842039" r="3" fill="black" style="cursor: pointer; fill: red; stroke: blue;"><title>X: 6.77, Y: 1.22</title></circle><circle cx="339.6969696969697" cy="103.34788449011182" r="3" fill="black" style="cursor: pointer; fill: red; stroke: blue;"><title>X: 6.87, Y: 1.23</title></circle><circle cx="344.54545454545456" cy="100.07489497432277" r="3" fill="black" style="cursor: pointer; fill: red; stroke: blue;"><title>X: 6.97, Y: 1.23</title></circle><circle cx="349.3939393939394" cy="96.82132984302149" r="3" fill="black" style="cursor: pointer; fill: red; stroke: blue;"><title>X: 7.07, Y: 1.23</title></circle><circle cx="354.24242424242425" cy="93.58695989792506" r="3" fill="black" style="cursor: pointer; fill: red; stroke: blue;"><title>X: 7.17, Y: 1.23</title></circle><circle cx="359.0909090909091" cy="90.37155997361049" r="3" fill="black" style="cursor: pointer; fill: red; stroke: blue;"><title>X: 7.27, Y: 1.24</title></circle><circle cx="363.93939393939394" cy="87.17490884345449" r="3" fill="black" style="cursor: pointer; fill: red; stroke: blue;"><title>X: 7.37, Y: 1.24</title></circle><circle cx="368.7878787878788" cy="83.99678912829626" r="3" fill="black" style="cursor: pointer; fill: red; stroke: blue;"><title>X: 7.47, Y: 1.24</title></circle><circle cx="373.6363636363636" cy="80.83698720773492" r="3" fill="black" style="cursor: pointer; fill: red; stroke: blue;"><title>X: 7.58, Y: 1.24</title></circle><circle cx="378.48484848484844" cy="77.6952931339668" r="3" fill="black" style="cursor: pointer; fill: red; stroke: blue;"><title>X: 7.68, Y: 1.25</title></circle><circle cx="383.3333333333333" cy="74.57150054807886" r="3" fill="black" style="cursor: pointer; fill: red; stroke: blue;"><title>X: 7.78, Y: 1.25</title></circle><circle cx="388.1818181818182" cy="71.46540659871272" r="3" fill="black" style="cursor: pointer; fill: red; stroke: blue;"><title>X: 7.88, Y: 1.25</title></circle><circle cx="393.030303030303" cy="68.37681186302046" r="3" fill="black" style="cursor: pointer; fill: red; stroke: blue;"><title>X: 7.98, Y: 1.25</title></circle><circle cx="397.87878787878793" cy="65.30552026983406" r="3" fill="black" style="cursor: pointer; fill: red; stroke: blue;"><title>X: 8.08, Y: 1.26</title></circle><circle cx="402.7272727272727" cy="62.25133902497538" r="3" fill="black" style="cursor: pointer; fill: red; stroke: blue;"><title>X: 8.18, Y: 1.26</title></circle><circle cx="407.5757575757575" cy="59.2140785386336" r="3" fill="black" style="cursor: pointer; fill: red; stroke: blue;"><title>X: 8.28, Y: 1.26</title></circle><circle cx="412.42424242424244" cy="56.193552354747" r="3" fill="black" style="cursor: pointer; fill: red; stroke: blue;"><title>X: 8.38, Y: 1.26</title></circle><circle cx="417.27272727272725" cy="53.18957708231551" r="3" fill="black" style="cursor: pointer; fill: red; stroke: blue;"><title>X: 8.48, Y: 1.27</title></circle><circle cx="422.1212121212122" cy="50.201972328586635" r="3" fill="black" style="cursor: pointer; fill: red; stroke: blue;"><title>X: 8.59, Y: 1.27</title></circle><circle cx="426.969696969697" cy="47.23056063405318" r="3" fill="black" style="cursor: pointer; fill: red; stroke: blue;"><title>X: 8.69, Y: 1.27</title></circle><circle cx="431.81818181818176" cy="44.27516740919981" r="3" fill="black" style="cursor: pointer; fill: red; stroke: blue;"><title>X: 8.79, Y: 1.27</title></circle><circle cx="436.6666666666667" cy="41.33562087294973" r="3" fill="black" style="cursor: pointer; fill: red; stroke: blue;"><title>X: 8.89, Y: 1.28</title></circle><circle cx="441.5151515151515" cy="38.411751992749544" r="3" fill="black" style="cursor: pointer; fill: red; stroke: blue;"><title>X: 8.99, Y: 1.28</title></circle><circle cx="446.3636363636363" cy="35.5033944262442" r="3" fill="black" style="cursor: pointer; fill: red; stroke: blue;"><title>X: 9.09, Y: 1.28</title></circle><circle cx="451.21212121212125" cy="32.61038446449169" r="3" fill="black" style="cursor: pointer; fill: red; stroke: blue;"><title>X: 9.19, Y: 1.28</title></circle><circle cx="456.06060606060606" cy="29.73256097666706" r="3" fill="black" style="cursor: pointer; fill: red; stroke: blue;"><title>X: 9.29, Y: 1.29</title></circle><circle cx="460.90909090909093" cy="26.86976535621227" r="3" fill="black" style="cursor: pointer; fill: red; stroke: blue;"><title>X: 9.39, Y: 1.29</title></circle><circle cx="465.75757575757575" cy="24.021841468381297" r="3" fill="black" style="cursor: pointer; fill: red; stroke: blue;"><title>X: 9.49, Y: 1.29</title></circle><circle cx="470.60606060606057" cy="21.188635599143254" r="3" fill="black" style="cursor: pointer; fill: red; stroke: blue;"><title>X: 9.60, Y: 1.29</title></circle><circle cx="475.4545454545455" cy="18.369996405399604" r="3" fill="black" style="cursor: pointer; fill: red; stroke: blue;"><title>X: 9.70, Y: 1.29</title></circle><circle cx="480.3030303030303" cy="15.565774866472452" r="3" fill="black" style="cursor: pointer; fill: red; stroke: blue;"><title>X: 9.80, Y: 1.30</title></circle><circle cx="485.1515151515152" cy="12.775824236828782" r="3" fill="black" style="cursor: pointer; fill: red; stroke: blue;"><title>X: 9.90, Y: 1.30</title></circle><circle cx="490" cy="10" r="3" fill="black" style="cursor: pointer; fill: red; stroke: blue;"><title>X: 10.00, Y: 1.30</title></circle></svg>