<svg width="500" height="500" xmlns="http://www.w3.org/2000/svg">
  <rect width="100%" height="100%" fill="white"/>
  <polyline points="20,438.2819641235612 24.646464646464626,442.0636197444611 29.2929292929293,445.6730279353033 33.93939393939392,449.1087156686676 38.5858585858586,452.36928081379733 43.232323232323225,455.4533927088194 47.878787878787854,458.35979270379795 52.52525252525253,461.0872946743991 57.171717171717155,463.6347855059572 61.818181818181834,466.0012255477461 66.46464646464645,468.185649037268 71.11111111111114,470.1871644943889 75.75757575757575,472.00495508515894 80.40404040404039,473.63827895516795 85.05050505050507,475.0864695323024 89.69696969696969,476.3489357987784 94.34343434343437,477.4251625323411 98.98989898989899,478.31471051653034 103.63636363636367,479.01721671992846 108.28282828282829,479.5323944443163 112.92929292929291,479.86003344167705 117.57575757575759,480 122.22222222222221,479.9522369978491 126.8686868686869,479.71676392767546 131.5151515151515,479.29367688786147 136.1616161616162,478.6831485435029 140.80808080808083,477.88542805594267 145.45454545454544,476.90084098108616 150.10101010101013,475.7297891365396 154.74747474747474,474.37275043762475 159.39393939393938,472.83027870233843 164.04040404040404,471.1030034253348 168.68686868686873,469.1916295210237 173.33333333333334,467.0969370358899 177.97979797979798,464.8197808301499 182.62626262626264,462.3610902288766 187.27272727272728,459.7218686427352 191.91919191919192,456.903193158483 196.56565656565658,453.90621409940206 201.21212121212125,450.7321545558436 205.85858585858588,447.38230988607495 210.50505050505052,443.8580471876342 215.15151515151518,440.160804739407 219.79797979797982,436.29209141465367 224.44444444444443,432.2534860652265 229.09090909090912,428.04663687722814 233.7373737373738,423.6732606983738 238.38383838383842,419.13514233733264 243.03030303030303,414.4341338353338 247.67676767676772,409.5721537103332 252.32323232323233,404.55118617405265 256.969696969697,399.3732803222066 261.61616161616166,394.04054929825105 266.26262626262627,388.55516943099315 270.90909090909093,382.9193793464143 275.55555555555554,377.1354790540702 280.20202020202026,371.20582900843806 284.8484848484849,365.13284914559836 289.4949494949495,358.9190178956388 294.14141414141415,352.5668711711883 298.7878787878788,346.0790013324922 303.4343434343435,339.45805612944844 308.0808080808081,332.7067376210417 312.72727272727275,325.8278010726116 317.3737373737374,318.82405383140764 322.020202020202,311.69835418088894 326.6666666666667,304.45361017423704 331.31313131313135,297.0927784475565 335.959595959596,289.618863013249 340.6060606060606,282.0349140340526 345.2525252525253,274.3440265782466 349.89898989898995,266.54933935653065 354.54545454545456,258.6540334410919 359.1919191919192,250.6613309673852 363.83838383838383,242.57449381915515 368.48484848484856,234.39682229723516 373.13131313131316,226.1316537726701 377.77777777777777,217.7823613247083 382.42424242424244,209.3523523642226 387.0707070707071,200.84506724311962 391.71717171717177,192.2639778503049 396.3636363636364,183.61258619477866 401.01010101010104,174.89442297643865 405.6565656565657,166.11304614517434 410.3030303030303,157.2720394488399 414.949494949495,148.37501097069867 419.59595959595964,139.42559165693723 424.2424242424243,130.42743383484725 428.8888888888889,121.3842097222834 433.5353535353536,112.29960992900169 438.18181818181824,103.17734195049434 442.82828282828285,94.02112865493098 447.4747474747475,84.83470676382802 452.1212121212121,75.62182532706396 456.76767676767685,66.38624419286185 461.41414141414145,57.13173247336783 466.06060606060606,47.8620670064459 470.7070707070707,38.58103081432154 475.3535353535354,29.292411559701918 480,20" fill="none" stroke="black" stroke-width="2"/>
</svg>