<svg width="600" height="400" xmlns="http://www.w3.org/2000/svg">
    <rect x="0" y="0" width="600" height="400" fill="white" stroke="black"/>
    <g class="grid">
<line class="grid-line" x1="20" y1="20" x2="20" y2="380" stroke="lightgray" stroke-dasharray="2,2" />
<line class="grid-line" x1="132" y1="20" x2="132" y2="380" stroke="lightgray" stroke-dasharray="2,2" />
<line class="grid-line" x1="244" y1="20" x2="244" y2="380" stroke="lightgray" stroke-dasharray="2,2" />
<line class="grid-line" x1="356.00000000000006" y1="20" x2="356.00000000000006" y2="380" stroke="lightgray" stroke-dasharray="2,2" />
<line class="grid-line" x1="468" y1="20" x2="468" y2="380" stroke="lightgray" stroke-dasharray="2,2" />
<line class="grid-line" x1="580" y1="20" x2="580" y2="380" stroke="lightgray" stroke-dasharray="2,2" />
<line class="grid-line" x1="20" y1="380" x2="580" y2="380" stroke="lightgray" stroke-dasharray="2,2" />
<line class="grid-line" x1="20" y1="308" x2="580" y2="308" stroke="lightgray" stroke-dasharray="2,2" />
<line class="grid-line" x1="20" y1="236" x2="580" y2="236" stroke="lightgray" stroke-dasharray="2,2" />
<line class="grid-line" x1="20" y1="164" x2="580" y2="164" stroke="lightgray" stroke-dasharray="2,2" />
<line class="grid-line" x1="20" y1="92" x2="580" y2="92" stroke="lightgray" stroke-dasharray="2,2" />
<line class="grid-line" x1="20" y1="20" x2="580" y2="20" stroke="lightgray" stroke-dasharray="2,2" />
</g>
    <g class="axes">
<line class="axis x-axis" x1="20" y1="380" x2="580" y2="380" stroke="black" stroke-width="2" />
<line class="axis y-axis" x1="20" y1="20" x2="20" y2="380" stroke="black" stroke-width="2" /></g>
    <g class="ticks">
<line class="tick-mark" x1="20" y1="380" x2="20" y2="385" stroke="black" />
<text class="tick-label" x="20" y="395" text-anchor="middle" font-size="10">-10.00</text>
<line class="tick-mark" x1="132" y1="380" x2="132" y2="385" stroke="black" />
<text class="tick-label" x="132" y="395" text-anchor="middle" font-size="10">-6.00</text>
<line class="tick-mark" x1="244" y1="380" x2="244" y2="385" stroke="black" />
<text class="tick-label" x="244" y="395" text-anchor="middle" font-size="10">-2.00</text>
<line class="tick-mark" x1="356.00000000000006" y1="380" x2="356.00000000000006" y2="385" stroke="black" />
<text class="tick-label" x="356.00000000000006" y="395" text-anchor="middle" font-size="10">2.00</text>
<line class="tick-mark" x1="468" y1="380" x2="468" y2="385" stroke="black" />
<text class="tick-label" x="468" y="395" text-anchor="middle" font-size="10">6.00</text>
<line class="tick-mark" x1="580" y1="380" x2="580" y2="385" stroke="black" />
<text class="tick-label" x="580" y="395" text-anchor="middle" font-size="10">10.00</text>
<line class="tick-mark" x1="15" y1="380" x2="20" y2="380" stroke="black" />
<text class="tick-label" x="13" y="383" text-anchor="end" font-size="10">-1.00</text>
<line class="tick-mark" x1="15" y1="308" x2="20" y2="308" stroke="black" />
<text class="tick-label" x="13" y="311" text-anchor="end" font-size="10">-0.60</text>
<line class="tick-mark" x1="15" y1="236" x2="20" y2="236" stroke="black" />
<text class="tick-label" x="13" y="239" text-anchor="end" font-size="10">-0.20</text>
<line class="tick-mark" x1="15" y1="164" x2="20" y2="164" stroke="black" />
<text class="tick-label" x="13" y="167" text-anchor="end" font-size="10">0.20</text>
<line class="tick-mark" x1="15" y1="92" x2="20" y2="92" stroke="black" />
<text class="tick-label" x="13" y="95" text-anchor="end" font-size="10">0.60</text>
<line class="tick-mark" x1="15" y1="20" x2="20" y2="20" stroke="black" />
<text class="tick-label" x="13" y="23" text-anchor="end" font-size="10">1.00</text>
</g>
    <polyline points="20,102.03442781789778 25.59999999999998,134.00561693043431 31.199999999999964,168.60779383863573 36.79999999999995,204.46147894265565 42.39999999999993,240.13729896024282 47.999999999999915,274.2129715288564 53.599999999999895,305.3300071151888 59.199999999999875,332.24786770589697 64.79999999999986,353.8934231434507 70.39999999999984,369.4037334390548 75.99999999999983,378.1604514668381 81.59999999999982,379.8144745124544 87.19999999999983,374.2998618966467 92.79999999999984,361.8364638220406 98.39999999999985,342.92115663934385 103.99999999999986,318.3080339552269 109.59999999999987,288.9783432999055 115.19999999999986,256.10136688461614 120.79999999999987,220.98780600973785 126.39999999999988,185.03752754010318 131.9999999999999,149.68375563063228 137.5999999999999,116.3359336020772 143.1999999999999,86.32353388357842 148.79999999999993,60.843056142308455 154.39999999999992,40.91032661751461 159.99999999999991,27.320000333984865 165.59999999999994,20.61388071388899 171.19999999999996,21.059319584095988 176.79999999999995,28.638558702514388 182.39999999999995,43.04943772316494 187.99999999999997,63.717440375652814 193.59999999999997,89.81859861587725 199.19999999999996,120.31234163176828 204.79999999999998,153.98298011785312 210.39999999999998,189.48817197153556 216,225.41243723672133 221.6,260.323588822862 227.2,292.8298292847278 232.8,321.6352373944777 238.4,345.5914324314977 244.00000000000006,363.743356497807 249.60000000000002,375.3673496625905 255.20000000000005,380 260.80000000000007,377.45661836025647 266.4,367.83860134323163 272,351.52938893598645 277.6,329.1791779705019 283.20000000000005,301.67900082780244 288.8,270.1252027887404 294.40000000000003,235.77573420736533 300.00000000000006,200.0000000000004 305.6,164.2242657926354 311.20000000000005,129.87479721126033 316.8,98.32099917219819 322.40000000000003,70.82082202949869 328.0000000000001,48.47061106401401 333.6,32.1613986567686 339.2000000000001,22.5433816397437 344.80000000000007,20 350.40000000000003,24.63265033740936 356.00000000000006,36.25664350219273 361.6000000000001,54.408567568501894 367.20000000000005,78.36476260552183 372.80000000000007,107.17017071527158 378.4000000000001,139.6764111771373 384.00000000000006,174.587562763278 389.60000000000014,210.51182802846375 395.2000000000001,246.01701988214623 400.8000000000001,279.6876583682311 406.4000000000001,310.18140138412224 412.00000000000017,336.28255962434673 417.6000000000001,356.9505622768347 423.2000000000001,371.3614412974854 428.8000000000001,378.94068041590396 434.4000000000002,379.3861192861111 440.0000000000001,372.6799996660154 445.60000000000014,359.0896733824858 451.20000000000016,339.15694385769206 456.8000000000002,313.67646611642226 462.4000000000002,283.6640663979236 468.00000000000017,250.31624436936852 473.6000000000002,214.96247245989767 479.2000000000002,179.01219399026297 484.80000000000024,143.89863311538465 490.40000000000015,111.02165670009532 496.00000000000017,81.69196604477378 501.60000000000025,57.07884336065666 507.2000000000003,38.16353617795977 512.8000000000002,25.700138103353538 518.4000000000003,20.185525487545704 524.0000000000002,21.839548533161803 529.6000000000003,30.596266560944855 535.2000000000002,46.10657685654877 540.8000000000002,67.75213229410235 546.4000000000001,94.66999288481048 552.0000000000001,125.78702847114278 557.6,159.86270103975627 563.2000000000002,195.53852105734344 568.8000000000001,231.3922061613634 574.4000000000001,265.99438306956483 580,297.9655721821014" fill="none" stroke="blue" stroke-width="2"/>
  </svg>
