<?xml version="1.0" encoding="UTF-8"?>
<svg width="800" height="1700" viewBox="0 0 800 1700" preserveAspectRatio="xMidYMid meet" xmlns="http://www.w3.org/2000/svg">
  <rect width="100%" height="100%" fill="white" />
  <text x="400" y="30" font-size="16" text-anchor="middle">Quadratic Plot: y = ax² + bx + c</text>
  <polyline points="50.00,50.00 85.00,84.20 120.00,114.80 155.00,141.80 190.00,165.20 225.00,185.00 260.00,201.20 295.00,213.80 330.00,222.80 365.00,228.20 400.00,230.00 435.00,228.20 470.00,222.80 505.00,213.80 540.00,201.20 575.00,185.00 610.00,165.20 645.00,141.80 680.00,114.80 715.00,84.20 750.00,50.00" fill="none" stroke="blue" stroke-width="2" />

  <text x="400" y="250" font-size="16" text-anchor="middle">Linear Plot: y = m*x + b</text>
  <polyline points="50.00,450.00 85.00,441.00 120.00,432.00 155.00,423.00 190.00,414.00 225.00,405.00 260.00,396.00 295.00,387.00 330.00,378.00 365.00,369.00 400.00,360.00 435.00,351.00 470.00,342.00 505.00,333.00 540.00,324.00 575.00,315.00 610.00,306.00 645.00,297.00 680.00,288.00 715.00,279.00 750.00,270.00" fill="none" stroke="orange" stroke-width="2" />

  <text x="400" y="470" font-size="16" text-anchor="middle">Sine Plot: y = A*sin(B*x + C)</text>
  <polyline points="50.00,580.00 69.44,564.37 88.89,549.22 108.33,535.00 127.78,522.15 147.22,511.06 166.67,502.06 186.11,495.43 205.56,491.37 225.00,490.00 244.44,491.37 263.89,495.43 283.33,502.06 302.78,511.06 322.22,522.15 341.67,535.00 361.11,549.22 380.56,564.37 400.00,580.00 419.44,595.63 438.89,610.78 458.33,625.00 477.78,637.85 497.22,648.94 516.67,657.94 536.11,664.57 555.56,668.63 575.00,670.00 594.44,668.63 613.89,664.57 633.33,657.94 652.78,648.94 672.22,637.85 691.67,625.00 711.11,610.78 730.56,595.63 750.00,580.00" fill="none" stroke="red" stroke-width="2" />

  <text x="400" y="690" font-size="16" text-anchor="middle">Cosine Plot: y = A*cos(B*x + C)</text>
  <polyline points="50.00,710.00 69.44,711.37 88.89,715.43 108.33,722.06 127.78,731.06 147.22,742.15 166.67,755.00 186.11,769.22 205.56,784.37 225.00,800.00 244.44,815.63 263.89,830.78 283.33,845.00 302.78,857.85 322.22,868.94 341.67,877.94 361.11,884.57 380.56,888.63 400.00,890.00 419.44,888.63 438.89,884.57 458.33,877.94 477.78,868.94 497.22,857.85 516.67,845.00 536.11,830.78 555.56,815.63 575.00,800.00 594.44,784.37 613.89,769.22 633.33,755.00 652.78,742.15 672.22,731.06 691.67,722.06 711.11,715.43 730.56,711.37 750.00,710.00" fill="none" stroke="teal" stroke-width="2" />

  <text x="400" y="910" font-size="16" text-anchor="middle">Polar Plot: r = scale * |sin(multiplier * θ)|</text>
  <polyline points="400.00,970.00 434.60,966.97 467.36,958.12 496.59,944.12 520.80,926.03 538.85,905.25 550.00,883.40 553.95,862.20 550.88,843.40 541.42,828.58 526.60,819.12 507.80,816.05 486.60,820.00 464.75,831.15 443.97,849.20 425.88,873.41 411.88,902.64 403.03,935.40 400.00,970.00 396.97,935.40 388.12,902.64 374.12,873.41 356.03,849.20 335.25,831.15 313.40,820.00 292.20,816.05 273.40,819.12 258.58,828.58 249.12,843.40 246.05,862.20 250.00,883.40 261.15,905.25 279.20,926.03 303.41,944.12 332.64,958.12 365.40,966.97 400.00,970.00 365.40,973.03 332.64,981.88 303.41,995.88 279.20,1013.97 261.15,1034.75 250.00,1056.60 246.05,1077.80 249.12,1096.60 258.58,1111.42 273.40,1120.88 292.20,1123.95 313.40,1120.00 335.25,1108.85 356.03,1090.80 374.12,1066.59 388.12,1037.36 396.97,1004.60 400.00,970.00 403.03,1004.60 411.88,1037.36 425.88,1066.59 443.97,1090.80 464.75,1108.85 486.60,1120.00 507.80,1123.95 526.60,1120.88 541.42,1111.42 550.88,1096.60 553.95,1077.80 550.00,1056.60 538.85,1034.75 520.80,1013.97 496.59,995.88 467.36,981.88 434.60,973.03 400.00,970.00" fill="none" stroke="green" stroke-width="2" />

  <text x="400" y="1150" font-size="16" text-anchor="middle">Exponential Plot: y = a * e^(b*x)</text>
  <polyline points="50.00,1350.00 85.00,1350.00 120.00,1350.00 155.00,1350.00 190.00,1350.00 225.00,1350.00 260.00,1350.00 295.00,1350.00 330.00,1350.00 365.00,1350.00 400.00,1349.99 435.00,1349.98 470.00,1349.94 505.00,1349.84 540.00,1349.55 575.00,1348.79 610.00,1346.70 645.00,1341.04 680.00,1325.64 715.00,1283.78 750.00,1170.00" fill="none" stroke="magenta" stroke-width="2" />

  <text x="400" y="1370" font-size="16" text-anchor="middle">Logarithmic Plot: y = a * log_b(x)</text>
  <polyline points="50.00,1570.00 127.78,1515.81 205.56,1484.12 283.33,1461.63 361.11,1444.19 438.89,1429.93 516.67,1417.88 594.44,1407.44 672.22,1398.24 750.00,1390.00" fill="none" stroke="brown" stroke-width="2" />
</svg>